subject_scale_walk_states
version=1
nRows=58
nColumns=9
inDegrees=yes

# SIMM Motion File Header:
name subject_scale_walk_states
datacolumns 9
datarows 58
otherdata 1
range 2.97036089 4.44769737
endheader
time	/jointset/hip_r/hip_flexion_r/value	/jointset/hip_r/hip_flexion_r/speed	/jointset/walker_knee_r/knee_angle_r/value	/jointset/walker_knee_r/knee_angle_r/speed	/jointset/patellofemoral_r/knee_angle_r_beta/value	/jointset/patellofemoral_r/knee_angle_r_beta/speed	/jointset/ankle_r/ankle_angle_r/value	/jointset/ankle_r/ankle_angle_r/speed
      2.97036089	     89.99999999	     -0.00000000	     44.93599936	     11.23621926	      0.78428114	      0.19610902	     -0.00000000	     -0.00000000
      3.00017250	     89.99999999	     -0.00000000	     45.26401709	     11.06155388	      0.79000613	      0.19306054	     -0.00000000	     -0.00000000
      3.03262249	     89.99999999	     -0.00000000	     45.64631993	     12.79313128	      0.79667857	      0.22328226	     -0.00000000	     -0.00000000
      3.05970060	     89.99999999	     -0.00000000	     46.02373993	     15.13663002	      0.80326580	      0.26418403	     -0.00000000	     -0.00000000
      3.08677871	     89.99999999	     -0.00000000	     46.46457932	     17.31880072	      0.81095989	      0.30227010	     -0.00000000	     -0.00000000
      3.11385682	     89.99999999	     -0.00000000	     46.95233527	     18.48498237	      0.81947284	      0.32262380	     -0.00000000	     -0.00000000
      3.12733710	     89.99999999	     -0.00000000	     47.20221023	     18.52796195	      0.82383398	      0.32337394	     -0.00000000	     -0.00000000
      3.14081739	     89.99999999	     -0.00000000	     47.45035207	     18.23320419	      0.82816487	      0.31822945	     -0.00000000	     -0.00000000
      3.16889410	     89.99999999	     -0.00000000	     47.94323034	     16.69896088	      0.83676722	      0.29145185	     -0.00000000	     -0.00000000
      3.19697080	     89.99999999	      0.00000000	     48.38154295	     14.48125426	      0.84441722	      0.25274557	     -0.00000000	     -0.00000000
      3.22504751	     89.99999999	      0.00000000	     48.75838689	     12.47115482	      0.85099439	      0.21766271	     -0.00000000	     -0.00000000
      3.24317462	     89.99999999	      0.00000000	     48.97642318	     11.67180250	      0.85479984	      0.20371138	     -0.00000000	     -0.00000000
      3.26130174	     89.99999999	      0.00000000	     49.18525664	     11.48014740	      0.85844467	      0.20036637	     -0.00000000	     -0.00000000
      3.29721574	     89.99999999	     -0.00000000	     49.61709261	     12.91812667	      0.86598163	      0.22546384	     -0.00000000	     -0.00000000
      3.32344959	     89.99999999	     -0.00000000	     49.98124890	     14.89940551	      0.87233736	      0.26004368	     -0.00000000	     -0.00000000
      3.34968344	     89.99999999	     -0.00000000	     50.39808594	     16.79783886	      0.87961254	      0.29317760	     -0.00000000	     -0.00000000
      3.37291708	     89.99999999	     -0.00000000	     50.80179679	     17.82327916	      0.88665862	      0.31107490	     -0.00000000	     -0.00000000
      3.39615073	     89.99999999	     -0.00000000	     51.21956926	     17.98524023	      0.89395012	      0.31390166	     -0.00000000	     -0.00000000
      3.43127657	     89.99999999	     -0.00000000	     51.83174786	     16.58814729	      0.90463466	      0.28951779	     -0.00000000	     -0.00000000
      3.45794652	     89.99999999	     -0.00000000	     52.25022684	     14.75004356	      0.91193849	      0.25743683	     -0.00000000	     -0.00000000
      3.48461646	     89.99999999	     -0.00000000	     52.61955349	     13.02868129	      0.91838446	      0.22739339	     -0.00000000	     -0.00000000
      3.51161670	     89.99999999	     -0.00000000	     52.95671158	     12.13207604	      0.92426898	      0.21174467	     -0.00000000	     -0.00000000
      3.53861694	     89.99999999	     -0.00000000	     53.28568286	     12.43455506	      0.93001061	      0.21702393	     -0.00000000	     -0.00000000
      3.56463205	     89.99999999	     -0.00000000	     53.62402405	     13.69912990	      0.93591578	      0.23909492	     -0.00000000	     -0.00000000
      3.59165033	     89.99999999	     -0.00000000	     54.01772172	     15.45961818	      0.94278710	      0.26982124	     -0.00000000	     -0.00000000
      3.61866860	     89.99999999	     -0.00000000	     54.45689233	     16.94826495	      0.95045207	      0.29580303	     -0.00000000	     -0.00000000
      3.64838698	     89.99999999	     -0.00000000	     54.97315958	     17.58407873	      0.95946263	      0.30690007	     -0.00000000	     -0.00000000
      3.67810535	     89.99999999	     -0.00000000	     55.48890441	     16.92417204	      0.96846408	      0.29538253	     -0.00000000	     -0.00000000
      3.70395634	     89.99999999	     -0.00000000	     55.91001874	     15.57988673	      0.97581391	      0.27192032	     -0.00000000	     -0.00000000
      3.72693132	     89.99999999	     -0.00000000	     56.25229830	     14.22848528	      0.98178782	      0.24833392	     -0.00000000	     -0.00000000
      3.74990630	     89.99999999	     -0.00000000	     56.56584511	     13.13956884	      0.98726024	      0.22932874	     -0.00000000	     -0.00000000
      3.78068062	     89.99999999	     -0.00000000	     56.95897725	     12.61811401	      0.99412169	      0.22022763	     -0.00000000	     -0.00000000
      3.81145493	     89.99999999	     -0.00000000	     57.35571063	     13.35719221	      1.00104600	      0.23312698	     -0.00000000	     -0.00000000
      3.85318578	     89.99999999	     -0.00000000	     57.95709781	     15.54077475	      1.01154218	      0.27123769	     -0.00000000	     -0.00000000
      3.88011726	     89.99999999	     -0.00000000	     58.39254969	     16.69771613	      1.01914225	      0.29143012	     -0.00000000	     -0.00000000
      3.90704873	     89.99999999	     -0.00000000	     58.84956802	     17.09863130	      1.02711873	      0.29842741	     -0.00000000	     -0.00000000
      3.94249978	     89.99999999	     -0.00000000	     59.44657928	     16.37853542	      1.03753854	      0.28585937	     -0.00000000	     -0.00000000
      3.96003245	     89.99999999	     -0.00000000	     59.72772916	     15.67162288	      1.04244553	      0.27352142	     -0.00000000	     -0.00000000
      3.98886703	     89.99999999	     -0.00000000	     60.16043126	     14.32924837	      1.04999760	      0.25009256	     -0.00000000	     -0.00000000
      4.01770160	     89.99999999	     -0.00000000	     60.55662144	     13.24417509	      1.05691243	      0.23115446	     -0.00000000	     -0.00000000
      4.04653617	     89.99999999	     -0.00000000	     60.93173706	     12.92622825	      1.06345943	      0.22560524	     -0.00000000	     -0.00000000
      4.07617456	     89.99999999	     -0.00000000	     61.32195324	     13.55527776	      1.07026999	      0.23658423	     -0.00000000	     -0.00000000
      4.08647590	     89.99999999	     -0.00000000	     61.46360343	     13.95488898	      1.07274225	      0.24355876	     -0.00000000	     -0.00000000
      4.09677724	     89.99999999	     -0.00000000	     61.60955886	     14.38517311	      1.07528965	      0.25106863	     -0.00000000	     -0.00000000
      4.12605808	     89.99999999	     -0.00000000	     62.04857358	     15.56894116	      1.08295191	      0.27172928	     -0.00000000	     -0.00000000
      4.15533891	     89.99999999	     -0.00000000	     62.51732311	     16.35452815	      1.09113313	      0.28544036	     -0.00000000	     -0.00000000
      4.18461975	     89.99999999	     -0.00000000	     62.99994911	     16.50060411	      1.09955654	      0.28798987	     -0.00000000	     -0.00000000
      4.20096784	     89.99999999	     -0.00000000	     63.26838905	     16.31089707	      1.10424170	      0.28467886	     -0.00000000	     -0.00000000
      4.22140146	     89.99999999	     -0.00000000	     63.59695258	     15.79517772	      1.10997622	      0.27567786	     -0.00000000	     -0.00000000
      4.25228481	     89.99999999	     -0.00000000	     64.06737344	     14.63515033	      1.11818661	      0.25543156	     -0.00000000	     -0.00000000
      4.28316816	     89.99999999	     -0.00000000	     64.50227730	     13.60301475	      1.12577711	      0.23741740	     -0.00000000	     -0.00000000
      4.31405152	     89.99999999	     -0.00000000	     64.91468951	     13.24606572	      1.13297506	      0.23118746	     -0.00000000	     -0.00000000
      4.32662684	     89.99999999	     -0.00000000	     65.08179332	     13.34951773	      1.13589158	      0.23299304	     -0.00000000	     -0.00000000
      4.33920217	     89.99999999	     -0.00000000	     65.25077104	     13.53745430	      1.13884079	      0.23627315	     -0.00000000	     -0.00000000
      4.37377132	     89.99999999	      0.00000000	     65.73199114	     14.36274037	      1.14723967	      0.25067711	     -0.00000000	     -0.00000000
      4.40834046	     89.99999999	      0.00000000	     66.24559097	     15.34313096	      1.15620368	      0.26778815	     -0.00000000	     -0.00000000
      4.43741014	     89.99999999	      0.00000000	     66.70177646	     15.99908808	      1.16416562	      0.27923676	     -0.00000000	     -0.00000000
      4.44769737	     89.99999999	      0.00000000	     66.86718516	     16.14617748	      1.16705254	      0.28180396	     -0.00000000	     -0.00000000
